<!-- Generator: Adobe Illustrator 22.0.0, SVG Export Plug-In  -->
<svg version="1.1"
	 xmlns="http://www.w3.org/2000/svg" xmlns:xlink="http://www.w3.org/1999/xlink" xmlns:a="http://ns.adobe.com/AdobeSVGViewerExtensions/3.0/"
	 x="0px" y="0px" width="26px" height="20px" viewBox="0 0 26 20" style="enable-background:new 0 0 26 20;" xml:space="preserve">
<style type="text/css">
	.st0{fill:#4CE49F;}
</style>
<defs>
</defs>
<g id="Page-1_1_">
	<g id="Artboard_1_" transform="translate(-481.000000, -520.000000)">
		<path id="Fill-1_1_" class="st0" d="M481.3,531c-0.2-0.2-0.3-0.5-0.3-0.7s0.1-0.5,0.3-0.7l1.4-1.4c0.4-0.4,1-0.4,1.4,0l0.1,0.1
			l5.5,5.9c0.2,0.2,0.5,0.2,0.7,0l13.4-13.9h0.1c0.4-0.4,1-0.4,1.4,0l1.4,1.4c0.4,0.4,0.4,1,0,1.4l-16,16.6
			c-0.2,0.2-0.4,0.3-0.7,0.3s-0.5-0.1-0.7-0.3l-7.8-8.4L481.3,531z"/>
	</g>
</g>
</svg>

