<?xml version="1.0" encoding="UTF-8"?>
<svg width="23px" height="23px" viewBox="0 0 23 23" version="1.1" xmlns="http://www.w3.org/2000/svg" xmlns:xlink="http://www.w3.org/1999/xlink">
    <!-- Generator: Sketch 50 (54983) - http://www.bohemiancoding.com/sketch -->
    <title>Fill 1</title>
    <desc>Created with Sketch.</desc>
    <defs></defs>
    <g id="Page-1" stroke="none" stroke-width="1" fill="none" fill-rule="evenodd">
        <g id="Header-9" transform="translate(-306.000000, -91.000000)" fill="#CBCBCB">
            <g id="MENU-Copy" transform="translate(-23.000000, 67.000000)">
                <path d="M338.141587,40.4579071 C334.078612,40.4317142 330.7982,37.1265133 330.824786,33.090604 C330.851126,29.0546947 334.174863,25.7881712 338.237838,25.8146089 C342.296136,25.8410466 345.581225,29.150409 345.554639,33.1863183 C345.528053,37.2222276 342.200131,40.4843448 338.141587,40.4579071 M351.737106,45.4641776 L345.258501,38.9773965 C346.568352,37.4104737 347.3647,35.3975373 347.379224,33.1980684 C347.412456,28.1533653 343.322896,24.0332471 338.249654,24.0002 C333.172228,23.9671529 329.033434,28.0339061 329.000201,33.078854 C328.966969,38.123557 333.052099,42.2436752 338.129771,42.2767223 C340.341329,42.2911651 342.371217,41.5298576 343.963913,40.2478744 L350.442764,46.7302492 C350.796505,47.0866684 351.370564,47.0903403 351.728736,46.7385722 C352.087154,46.3912103 352.090847,45.8159457 351.737106,45.4641776" id="Fill-1"></path>
            </g>
        </g>
    </g>
</svg>