<?xml version="1.0" encoding="UTF-8"?>
<svg width="25px" height="22px" viewBox="0 0 25 22" version="1.1" xmlns="http://www.w3.org/2000/svg" xmlns:xlink="http://www.w3.org/1999/xlink">
    <!-- Generator: Sketch 50 (54983) - http://www.bohemiancoding.com/sketch -->
    <title>Fill 1</title>
    <desc>Created with Sketch.</desc>
    <defs></defs>
    <g id="Page-1" stroke="none" stroke-width="1" fill="none" fill-rule="evenodd">
        <g id="Bottom-menu-1" transform="translate(-243.000000, -23.000000)" fill="#282828">
            <path d="M264.96309,33.8328912 L255.49205,43.2758621 L246.04221,33.8169761 C245.003363,32.7771883 244.43102,31.397878 244.43102,29.928382 C244.43102,28.4588859 244.998116,27.0795756 246.036857,26.0450928 C247.07035,25.0106101 248.448342,24.4376658 249.911185,24.4376658 C251.379276,24.4376658 252.762567,25.0106101 253.801308,26.0503979 L254.999153,27.2493369 C255.280052,27.530504 255.730549,27.530504 256.011447,27.2493369 L257.198639,26.061008 C258.237433,25.0212202 259.620671,24.4482759 261.083515,24.4482759 C262.546253,24.4482759 263.924244,25.0212202 264.96309,26.0557029 C266.001884,27.0954907 266.56898,28.4748011 266.56898,29.9442971 C266.574227,31.4137931 266.001884,32.7931034 264.96309,33.8328912 M265.980631,25.0424403 C264.671592,23.7320955 262.938503,23.0159151 261.088762,23.0159151 C259.239127,23.0159151 257.500685,23.7374005 256.191646,25.0477454 L255.50795,25.7320955 L254.813655,25.0371353 C253.504563,23.7267905 251.760821,23 249.911185,23 C248.066797,23 246.328408,23.7214854 245.024616,25.0265252 C243.715525,26.33687 242.994729,28.0769231 243.000029,29.928382 C243.000029,31.7798408 243.726124,33.5145889 245.035216,34.8249337 L254.988553,44.7877984 C255.126353,44.9257294 255.311851,45 255.49205,45 C255.672196,45 255.857695,44.9310345 255.995547,44.7931034 L265.970084,34.8461538 C267.279123,33.535809 267.999971,31.795756 267.999971,29.9442971 C268.005218,28.0928382 267.289723,26.3527851 265.980631,25.0424403" id="Fill-1"></path>
        </g>
    </g>
</svg>