<?xml version="1.0" encoding="UTF-8"?>
<svg width="22px" height="22px" viewBox="0 0 22 22" version="1.1" xmlns="http://www.w3.org/2000/svg" xmlns:xlink="http://www.w3.org/1999/xlink">
    <!-- Generator: Sketch 50.2 (55047) - http://www.bohemiancoding.com/sketch -->
    <title>Fill 1</title>
    <desc>Created with Sketch.</desc>
    <defs></defs>
    <g id="Page-1" stroke="none" stroke-width="1" fill="none" fill-rule="evenodd">
        <g id="Artboard" transform="translate(-577.000000, -519.000000)" fill="#FF9080">
            <path d="M579.313035,540.999935 C579.931187,540.999935 580.512252,540.759259 580.949055,540.32232 L587.999445,533.27178 L595.050288,540.32245 C595.486638,540.759389 596.067703,541 596.686568,541 C597.304265,541 597.885136,540.759324 598.322134,540.32245 C599.224205,539.419979 599.224205,537.951414 598.322069,537.048943 L591.272717,529.999181 L598.322069,522.94903 C598.759262,522.511832 599,521.930631 599,521.312537 C598.999935,520.694442 598.759067,520.113241 598.321745,519.676107 C597.419934,518.774609 595.95197,518.774674 595.04938,519.676172 L587.99938,526.726193 L580.948796,519.676043 C580.046531,518.774609 578.578632,518.774674 577.676691,519.676107 C576.774426,520.578384 576.774426,522.04669 577.676756,522.94903 L584.726302,529.999117 L577.677145,537.048878 C576.775009,537.951738 576.774944,539.420239 577.677145,540.32232 C578.114078,540.759259 578.695078,540.999935 579.313035,540.999935" id="Fill-1"></path>
        </g>
    </g>
</svg>